<?xml version="1.0" encoding="utf-8"?>
<svg width="128.08398px" height="159.30801px" viewBox="0 0 128.08398 159.30801" version="1.1" xmlns:xlink="http://www.w3.org/1999/xlink" xmlns="http://www.w3.org/2000/svg">
  <g id="Group">
    <path d="M14.96 159.308C20.548 159.308 25.08 156.492 27.632 152.136L25.432 151.036C23.276 154.556 19.492 156.932 14.96 156.932C7.7 156.932 2.552 150.904 2.552 143.6C2.552 136.34 7.7 130.312 14.96 130.312C19.492 130.312 23.276 132.688 25.432 136.208L27.632 135.108C25.08 130.752 20.548 127.936 14.96 127.936C6.204 127.936 0 134.888 0 143.6C0 152.356 6.204 159.308 14.96 159.308ZM15.092 145.712C16.192 145.712 17.116 144.788 17.116 143.688C17.116 142.544 16.192 141.62 15.092 141.62C13.948 141.62 13.024 142.544 13.024 143.688C13.024 144.788 13.948 145.712 15.092 145.712ZM35.244 159L35.244 134.448L47.872 151.388L48.268 151.388L60.852 134.316L60.852 159L63.14 159L63.14 127.936L62.744 127.936L48.048 147.56L33.352 127.936L32.956 127.936L32.956 159L35.244 159ZM78.76 159C89.188 159 95.172 152.84 95.172 143.6C95.172 134.36 89.056 128.2 78.76 128.2L70.18 128.2L70.18 128.2L70.18 130.488L79.332 130.488L79.332 130.488C87.428 130.488 92.62 135.768 92.62 143.6C92.62 151.432 87.648 156.712 79.332 156.712L72.468 156.712L72.468 156.712L72.468 144.128L70.18 144.128L70.18 159L78.76 159ZM115.412 159.308C121 159.308 125.532 156.492 128.084 152.136L125.884 151.036C123.728 154.556 119.944 156.932 115.412 156.932C108.152 156.932 103.004 150.904 103.004 143.6C103.004 136.34 108.152 130.312 115.412 130.312C119.944 130.312 123.728 132.688 125.884 136.208L128.084 135.108C125.532 130.752 121 127.936 115.412 127.936C106.656 127.936 100.452 134.888 100.452 143.6C100.452 152.356 106.656 159.308 115.412 159.308ZM115.544 145.712C116.644 145.712 117.568 144.788 117.568 143.688C117.568 142.544 116.644 141.62 115.544 141.62C114.4 141.62 113.476 142.544 113.476 143.688C113.476 144.788 114.4 145.712 115.544 145.712Z" id="CMDC" fill="#F9F9F9" stroke="none" />
    <path d="M73.9898 1.91611C66.1681 -1.19598 56.9607 -0.49517 49.7321 3.85819C42.9851 7.84333 38.0408 14.798 36.5081 22.5485C34.6526 31.4216 37.2774 41.132 43.4783 47.7066C47.2717 51.6264 51.1121 55.4987 54.9465 59.3769C56.5438 57.7496 58.1468 56.1282 59.7499 54.5128C55.8626 50.4742 51.8343 46.5782 47.994 42.498C41.5053 35.2879 40.9827 23.5226 46.7432 15.7245C51.6288 8.69856 60.9244 5.31921 69.1218 7.57013C76.1096 9.3281 81.9582 14.9999 84.0076 21.9784C85.8749 27.9947 84.9295 34.8306 81.5002 40.0986C79.1514 43.5967 75.863 46.2812 73.0091 49.3339C62.457 60.0599 51.8813 70.7622 41.3291 81.4882C39.8611 82.9908 38.2874 84.4102 37.0308 86.1088C34.6937 89.31 33.8892 93.5624 34.7583 97.4347C35.7389 102.026 39.1917 105.963 43.5723 107.525C48.2171 109.23 53.7369 108.184 57.3952 104.805C61.0712 101.562 62.7741 96.2706 61.7406 91.454C61.2708 88.7577 59.7793 86.3998 58.0588 84.339C56.4439 85.9366 54.8526 87.552 53.2554 89.1734C55.2989 91.5906 56.0094 95.255 54.2243 98.0227C52.2454 101.568 47.1014 102.566 43.9775 99.9944C40.648 97.5772 40.2545 92.1964 43.22 89.3278C56.7845 75.5313 70.3961 61.7823 83.9489 47.9798C91.1128 40.6034 93.6085 29.1172 90.3201 19.3474C87.7892 11.4721 81.6294 4.89754 73.9898 1.91611ZM95.1939 58.4148C97.0789 56.7756 99.2105 55.3146 101.677 54.7682C106.603 53.4734 112.153 55.2136 115.447 59.1453C118.994 63.1601 119.845 69.3012 117.614 74.1712C115.723 78.4533 111.577 81.6426 106.968 82.2365C102.61 82.9076 98.0595 81.2566 95.0295 78.0495C89.6155 72.5498 84.2014 67.0502 78.7697 61.5684C80.3493 59.9114 81.9524 58.2782 83.5672 56.6627C88.7992 61.9842 94.0548 67.2759 99.2751 72.6033C100.79 74.3019 102.892 75.6382 105.241 75.4838C108.935 75.4719 112.17 72.0628 112.07 68.3271C112.135 64.6211 108.929 61.2656 105.259 61.2359C103.268 61.0636 101.512 62.1327 99.968 63.2492C98.3649 61.6516 96.7735 60.0362 95.1939 58.4148ZM23.0375 54.3584C17.9523 54.1505 12.9316 57.0725 10.5358 61.61C8.07542 66.0822 8.3103 71.9262 11.1641 76.1608C13.7185 80.0984 18.3457 82.5275 22.9964 82.3612C26.6313 82.3078 30.1428 80.6627 32.6678 78.0376C38.0525 72.5083 43.537 67.074 48.9042 61.5209C47.2893 59.9174 45.7039 58.2901 44.1243 56.6568C39.2622 61.5506 34.447 66.486 29.5967 71.3917C28.0053 73.0012 26.414 74.9255 24.071 75.3412C20.489 76.1905 16.5958 73.6664 15.8207 70.0495C14.7755 66.2425 17.5001 61.9901 21.3405 61.3546C23.6659 60.8082 25.9149 61.8595 27.7176 63.2611C29.3089 61.6516 30.8768 60.0302 32.4623 58.4207C29.902 56.0154 26.5725 54.3999 23.0375 54.3584ZM88.4117 83.5491C83.1444 78.287 77.9828 72.9181 72.7038 67.6679C71.1124 69.2952 69.5152 70.9107 67.918 72.5261C73.6903 78.4652 79.5976 84.2796 85.3347 90.2603C88.1944 93.2536 87.4956 98.6581 84.0369 100.879C80.7427 103.314 75.5987 101.954 73.8489 98.2365C72.3515 95.4985 73.1618 92.1192 75.082 89.8208C73.4789 88.2172 71.8934 86.6018 70.2904 85.0042C67.5481 88.0034 65.9156 92.0776 66.3443 96.1934C66.7436 102.329 71.6468 107.792 77.6481 108.766C82.5572 109.723 87.8597 107.686 90.9249 103.695C94.2896 99.5015 94.8592 93.2833 92.3636 88.5142C91.4123 86.5899 89.9032 85.0457 88.4117 83.5491Z" id="Octopus" fill="#74FEFF" fill-rule="evenodd" stroke="none" />
  </g>
</svg>