<svg xmlns="http://www.w3.org/2000/svg" xmlns:xlink="http://www.w3.org/1999/xlink" viewBox="0 0 120 120"
    shape-rendering="geometricPrecision" text-rendering="geometricPrecision" class="all">
    <style>
        <![CDATA[
        .all {
            --iteration-count: infinite;
        }

        .t-4 {
            animation-name: cmdc-4-t;
        }

        @keyframes cmdc-4-t {
            0% {
                transform: translate(76.39px, 101.1px) rotate(0deg)
            }

            15% {
                transform: translate(76.39px, 101.1px) rotate(0deg)
            }

            26.5% {
                transform: translate(76.39px, 99.6px) rotate(46.05deg)
            }

            50% {
                transform: translate(76.39px, 99.6px) rotate(46.05deg)
            }

            76.5% {
                transform: translate(76.39px, 99.6px) rotate(46.05deg)
            }

            85% {
                transform: translate(76.39px, 101.1px) rotate(0deg)
            }

            100% {
                transform: translate(76.39px, 101.1px) rotate(0deg)
            }
        }

        .t-2 {
            animation-name: cmdc-2-t;
        }

        @keyframes cmdc-2-t {
            0% {
                transform: translate(84.11px, 80.73px) rotate(-90deg)
            }

            15% {
                transform: translate(84.11px, 80.73px) rotate(-90deg)
            }

            26.5% {
                transform: translate(84.11px, 80.73px) rotate(1.50deg)
            }

            50% {
                transform: translate(84.11px, 80.73px) rotate(1.50deg)
            }

            76.5% {
                transform: translate(84.11px, 80.73px) rotate(1.50deg)
            }

            85% {
                transform: translate(84.11px, 80.73px) rotate(-90deg)
            }

            100% {
                transform: translate(84.11px, 80.73px) rotate(-90deg)
            }
        }

        .t-1 {
            animation-name: cmdc-1-t;
        }

        @keyframes cmdc-1-t {
            0% {
                transform: translate(41.80px, 80.82px)
            }

            15% {
                transform: translate(41.80px, 80.82px)
            }

            26.5% {
                transform: translate(32.50px, 85.99px)
            }

            50% {
                transform: translate(32.50px, 85.99px)
            }

            76.5% {
                transform: translate(32.50px, 85.99px)
            }

            85% {
                transform: translate(41.80px, 80.82px)
            }

            100% {
                transform: translate(41.80px, 80.82px)
            }
        }

        .a-1 {
            animation-name: cmdc-1-a;
        }

        @keyframes cmdc-1-a {
            0% {
                transform: rotate(90deg)
            }

            15% {
                transform: rotate(90deg)
            }

            26.5% {
                transform: rotate(42.22deg)
            }

            50% {
                transform: rotate(42.22deg)
            }

            76.5% {
                transform: rotate(42.22deg)
            }

            85% {
                transform: rotate(90deg)
            }

            100% {
                transform: rotate(90deg)
            }
        }

        .cmdc-t {
            animation-duration: 7.0s;
            animation-delay: 1s;
        }

        .octopus {
            animation-name: octopus-a;
            animation-duration: 7.0s;
            animation-delay: 2s;
        }

        .cmdc {
            animation-name: cmdc-a;
            animation-duration: 7.0s;
            animation-delay: 0s;
        }

        .anima {
            animation-timing-function: linear;
            animation-iteration-count: var(--iteration-count);
            animation-fill-mode: forwards;
            animation-direction: normal;
        }

        @keyframes cmdc-a {
            0% {
                stroke-dashoffset: 70.86;
                opacity: 1;
            }

            12.5% {
                stroke-dashoffset: 0;
                opacity: 1;
            }

            25% {
                stroke-dashoffset: 0;
                opacity: 0.9;
            }

            37.5% {
                stroke-dashoffset: 0;
                opacity: 0.8;
            }

            50% {
                stroke-dashoffset: 0;
                opacity: 0.3;
            }

            62.5% {
                stroke-dashoffset: 0;
                opacity: 0.2;
            }

            75% {
                stroke-dashoffset: 0;
                opacity: 0.1;
            }

            87.5% {
                stroke-dashoffset: 70.86;
                opacity: 0.0;
            }

            100% {
                stroke-dashoffset: 70.86;
                opacity: 1;
            }
        }


        @keyframes octopus-a {
            0% {
                stroke-dashoffset: attr(stroke-dasharray);
                opacity: 0.9;
            }

            25% {
                stroke-dashoffset: 0;
                opacity: 1;
            }

            37.5% {
                stroke-dashoffset: 0;
                opacity: 1;
            }

            50% {
                stroke-dashoffset: 0;
                opacity: 1;
            }

            62.5% {
                stroke-dashoffset: 0;
                opacity: 1;
            }

            75% {
                stroke-dashoffset: 0;
                opacity: 0.3;
            }

            87.5% {
                stroke-dashoffset: attr(stroke-dasharray);
                opacity: 0.2;
            }

            100% {
                stroke-dashoffset: attr(stroke-dasharray);
                opacity: 0.0;
            }
        }
        ]]>
    </style>
    <path id="octopus-4" class="octopus anima"
        d="M58.2468111,66.620721 L64.1067381,72.585205 C64.7046121,73.189231 65.3028381,73.792965 65.9010851,74.39672 C69.2062571,77.732324 72.5119681,81.068688 75.7682161,84.463268 C77.9176821,86.713153 78.8049891,89.854454 78.4344241,92.886685 C78.0672661,95.89103 76.4718881,98.709068 73.9173541,100.389285 C71.4342501,102.173914 68.2852571,102.625059 65.3992171,101.876503 C62.5171421,101.128976 59.9615841,99.198246 58.6269511,96.436529 C57.5815641,94.471449 57.2810381,92.297356 57.5918031,90.176438 C57.9105141,88.001291 58.8852931,85.88956 60.2987781,84.197589 C60.3689931,84.11354 60.4488871,84.035436 60.5215971,83.962814"
        transform="translate(8.376288 8.888544)" fill="none" stroke="#74feff" stroke-width="7" stroke-dashoffset="74.49"
        stroke-dasharray="74.49" />
    <g class="cmdc-t anima t-4" transform="translate(76.392058,101.096835) rotate(0)">
        <path id="cmdc-4" class="cmdc anima"
            d="M24.450459,36.59789L43.345626,36.59789L43.980908,36.59789C45.537005,36.591384,46.78117,36.550282,47.979535,36.870943C50.398246,37.460411,52.473576,39.032886,53.703875,41.112894C54.529135,42.481305,54.939725,44.044154,55,45.608742C54.927908,47.610836,54.506759,49.173041,53.687387,50.517246C52.713506,52.137052,51.250677,53.438248,49.538587,54.196933C48.433445,54.692731,47.244883,54.937874,46.052358,55C44.11333,54.942337,42.611512,54.563427,41.301722,53.813304C39.91961,53.032489,38.761914,51.902943,37.941463,50.566517C37.071827,49.149749,36.618116,47.489468,36.6047,45.829137C36.594264,44.549274,36.606006,40.345031,36.6047,39.591777"
            transform="matrix(1,0,0,1,-43.872048,-45.796596)" fill="none" stroke="#74feff" stroke-width="6"
            stroke-dasharray="70.86" />
    </g>
    <path id="octopus-3" class="octopus anima"
        d="M45.5132096,53.9375684 C43.7868658,52.2211653 41.7678101,50.120425 40.0733951,48.413706 C37.8108841,46.134771 35.5490871,43.855966 33.2952111,41.46002 C29.5173531,37.262147 27.4448891,31.747919 27.1825121,26.131726 C26.9211101,20.536377 28.4580141,14.866191 31.7823761,10.33146 C34.6371071,6.23448696 38.7672651,3.18701896 43.3906811,1.50232795 C48.0086081,-0.180364034 53.1066731,-0.499150024 57.8871931,0.798257963 C66.0227331,2.84848996 72.8463821,9.43617296 75.2531971,17.56071 C77.4241941,24.556712 76.3231801,32.504181 72.3087171,38.67044 C70.5649851,41.267293 68.3608511,43.465803 66.1390981,45.647997 C65.2352741,46.535727 64.3309661,47.422441 63.4069161,48.409197 C58.1299101,53.773117 52.8470551,59.131112 47.5641981,64.489106 C42.2831551,69.845262 37.0021101,75.201417 31.7269161,80.563498 C31.3698361,80.929024 30.9979951,81.298358 30.6258171,81.667834 C29.6223291,82.664036 28.6064491,83.653752 27.7603891,84.793347 C26.0062361,87.195917 25.4252181,90.388796 26.0838001,93.324314 C26.8146561,96.745931 29.3843251,99.684359 32.6811911,100.86009 C34.4127911,101.495721 36.3079771,101.60694 38.1083321,101.252675 C39.8851191,100.903048 41.5769461,100.098147 42.9825121,98.801132 C44.3502691,97.594452 45.3407691,96.001568 45.9043311,94.270015 C46.4740561,92.519528 46.6098281,90.620186 46.1952381,88.675381 C45.8749187,86.8365954 44.9558357,84.9890011 43.7532812,83.7918809"
        transform="translate(8.376288,8.888544)" fill="none" stroke="#74feff" stroke-width="7" stroke-dashoffset="239.3"
        stroke-dasharray="239.3" />
    <path id="cmdc-3" class="cmdc anima"
        d="M18.4024,24.448725l-.020686,4.558876c.020786,2.239162.020424,4.478318.020186,6.717581l-.000192,4.530807.000692,3.927075c.009008,1.270654.051823,2.532983-.26045,3.746513-.514256,2.153456-1.806457,4.044013-3.552031,5.310846-1.522044,1.117022-3.380554,1.708638-5.24632,1.75875-2.454939-.063924-4.629409-.868941-6.258767-2.342978C1.197464,50.985636,0.088592,48.555723,0,46.076649c.052408-1.741865.327679-3.022305.883286-4.18353.976736-2.084616,2.745314-3.751687,4.854055-4.608282c1.165111-.479384,2.414136-.68575,3.657057-.684838c1.120199-.004103,5.162527.001505,6.020998,0"
        transform="translate(32.500001,55.34018)" fill="none" stroke="#74feff" stroke-width="6"
        stroke-dasharray="70.86" />
    <path id="octopus-2" class="octopus anima"
        d="M69.8218121,56.395721 L69.1587201,55.725634 C74.5928511,61.2098865 80.0092711,66.711942 85.4764331,72.266589 C87.7245001,74.646053 91.0967711,75.897166 94.4230601,75.385915 C97.8505481,74.944308 100.912735,72.553649 102.334817,69.334214 C103.175162,67.499844 103.41958,65.424749 103.13256,63.434561 C102.849235,61.469997 102.046177,59.57669 100.666947,58.013739 C99.4504531,56.561739 97.8127181,55.52397 96.0316891,54.957843 C94.2413891,54.388769 92.2980481,54.29331 90.3365971,54.806057 C89.0830086,55.0837962 87.0806743,56.0523178 85.5136631,57.5925961"
        transform="translate(8.376289,8.888544)" fill="none" stroke="#74feff" stroke-width="7" stroke-dashoffset="76.69"
        stroke-dasharray="76.69" />
    <g class="cmdc-t anima t-2" transform="translate(84.1149,80.726652) rotate(-90)">
        <path id="cmdc-2" class="cmdc anima"
            d="M30.478877,6.076307L49.374043,6.076307L50.009326,6.076307C51.565423,6.069802,52.809587,6.028699,54.007952,6.349361C56.426664,6.938829,58.501994,8.511304,59.732292,10.591312C60.557553,11.959723,60.968143,13.522572,61.028418,15.08716C60.956325,17.089253,60.535177,18.651459,59.715805,19.995664C58.741923,21.61547,57.279094,22.916666,55.567005,23.675351C54.461863,24.171149,53.273301,24.416292,52.080776,24.478418C50.141748,24.420754,48.63993,24.041845,47.33014,23.291721C45.948028,22.510907,44.790331,21.38136,43.969881,20.044934C43.100245,18.628166,42.646534,16.967886,42.633118,15.307555C42.622681,14.027692,42.634424,9.823448,42.633118,9.070195"
            transform="translate(-35.641947,-21.136021)" fill="none" stroke="#74feff" stroke-width="6"
            stroke-dasharray="70.86" />
    </g>
    <path id="octopus-1" class="octopus anima"
        d="M34.5100131,55.74434 C31.7076701,58.564953 28.9209431,61.399419 26.1340591,64.23402 C24.0876521,66.315467 22.0411631,68.396989 19.9883391,70.473261 C19.8052221,70.65846 19.6221651,70.848101 19.4377841,71.038995 C17.5217641,73.022696 15.4174791,74.870831 12.6824371,75.390383 C10.0011771,75.995972 7.19888706,75.407325 4.91631506,73.943292 C2.64387406,72.485756 0.924765061,70.182302 0.321440061,67.496463 C-0.421494939,64.671831 0.159627061,61.678464 1.69084006,59.266458 C3.23332006,56.836702 5.70821306,55.04771 8.56218306,54.540915 C11.8678881,53.812321 15.1251151,55.082351 17.7468111,57.120721 C17.8543031,57.204296 17.9751301,57.312616 18.0788351,57.415621"
        transform="translate(8.376288,8.888544)" fill="none" stroke="#74feff" stroke-width="7" stroke-dashoffset="73.34"
        stroke-dasharray="73.34" />
    <g class="cmdc-t anima t-1" transform="translate(41.704669,80.726652)">
        <g class="cmdc-t anima a-1" transform="rotate(90)">
            <path id="cmdc-1" class="cmdc anima"
                d="M24.4729,-6.070499L24.452214,-1.511624C24.473,0.727538,24.472638,2.966694,24.4724,5.205957L24.472207,9.736765L24.4729,13.663839C24.481908,14.934494,24.524722,16.196822,24.212449,17.410352C23.698194,19.563808,22.405992,21.454365,20.660419,22.721198C19.138375,23.83822,17.279865,24.429836,15.414098,24.479948C12.959159,24.416024,10.78469,23.611007,9.155331,22.13697C7.267963,20.466412,6.159092,18.036498,6.070499,15.557424C6.122908,13.81556,6.398179,12.53512,6.953786,11.373894C7.930522,9.289279,9.6991,7.622208,11.80784,6.765612C12.972952,6.286228,14.221977,6.079862,15.464897,6.080774C16.585096,6.076672,20.627424,6.082279,21.485895,6.080774"
                transform="translate(-31.456966,-15.275281)" fill="none" stroke="#74feff" stroke-width="6"
                stroke-dasharray="70.86" />
        </g>
    </g>
</svg>